<?xml version="1.0" encoding="utf-8"?>
<!-- Generator: Adobe Illustrator 24.1.0, SVG Export Plug-In . SVG Version: 6.00 Build 0)  -->
<svg version="1.1" id="Layer_1" xmlns="http://www.w3.org/2000/svg" xmlns:xlink="http://www.w3.org/1999/xlink" x="0px" y="0px"
	 viewBox="0 0 844.2 500" style="enable-background:new 0 0 844.2 500;" xml:space="preserve">
<style type="text/css">
	.st0{stroke:#EBF0F8;}
	.st1{stroke:#EBF0F8;stroke-width:2;}
	.st2{fill:none;}
	.st3{fill:#636EFA;}
	.st4{fill:#848D96;}
	.st5{fill:#2A3F5F;}
	.st6{font-family:'Verdana';}
	.st7{font-size:12px;}
	.st8{font-family:'Verdana-Italic';}
	.st9{font-size:11px;}
	.st10{font-size:17px;}
	.st11{fill:none;stroke:#848D96;stroke-miterlimit:10;}
	.st12{fill:none;stroke:#2A3F5F;stroke-miterlimit:10;}
</style>
<g>
	<path class="st0" d="M372.9,85.5V420"/>
	<path class="st0" d="M490.6,85.5V420"/>
	<path class="st0" d="M608.4,85.5V420"/>
	<path class="st0" d="M726.1,85.5V420"/>
</g>
<g>
	<path class="st0" d="M244.2,394.5h540"/>
	<path class="st0" d="M244.2,317.2h540"/>
	<path class="st0" d="M244.2,162.8h540"/>
	<path class="st0" d="M244.2,85.5h540"/>
</g>
<path class="st1" d="M255.1,85.5V420"/>
<path class="st1" d="M244.2,240h540"/>
<path class="st1" d="M164.2,0"/>
<path class="st1" d="M164.2,0"/>
<rect x="244.2" y="60" class="st2" width="540" height="360"/>
<path class="st3" d="M355.3,85.5c0,3.3-2.7,6-6,6c-3.3,0-6-2.7-6-6s2.7-6,6-6C352.6,79.5,355.3,82.2,355.3,85.5z"/>
<path class="st3" d="M614.4,104.8c0,3.3-2.7,6-6,6s-6-2.7-6-6c0-3.3,2.7-6,6-6S614.4,101.5,614.4,104.8z"/>
<path class="st3" d="M402.4,209.1c0,3.3-2.7,6-6,6c-3.3,0-6-2.7-6-6s2.7-6,6-6C399.7,203.1,402.4,205.8,402.4,209.1z"/>
<path class="st3" d="M378.9,240c0,3.3-2.7,6-6,6c-3.3,0-6-2.7-6-6s2.7-6,6-6C376.2,234,378.9,236.7,378.9,240z"/>
<path class="st3" d="M426,264.4c0,3.3-2.7,6-6,6c-3.3,0-6-2.7-6-6c0-3.3,2.7-6,6-6C423.3,258.4,426,261.1,426,264.4z"/>
<path class="st3" d="M637.9,268.9c0,3.3-2.7,6-6,6s-6-2.7-6-6c0-3.3,2.7-6,6-6S637.9,265.5,637.9,268.9z"/>
<path class="st3" d="M449.5,291.5c0,3.3-2.7,6-6,6c-3.3,0-6-2.7-6-6s2.7-6,6-6C446.8,285.5,449.5,288.2,449.5,291.5z"/>
<path class="st3" d="M378.9,306.2c0,3.3-2.7,6-6,6c-3.3,0-6-2.7-6-6c0-3.3,2.7-6,6-6C376.2,300.2,378.9,302.9,378.9,306.2z"/>
<path class="st3" d="M755.7,330.6c0,3.3-2.7,6-6,6s-6-2.7-6-6s2.7-6,6-6S755.7,327.3,755.7,330.6z"/>
<path class="st3" d="M496.6,335.1c0,3.3-2.7,6-6,6c-3.3,0-6-2.7-6-6s2.7-6,6-6C493.9,329.1,496.6,331.8,496.6,335.1z"/>
<path class="st3" d="M402.4,350.4c0,3.3-2.7,6-6,6c-3.3,0-6-2.7-6-6s2.7-6,6-6C399.7,344.4,402.4,347,402.4,350.4z"/>
<path class="st3" d="M355.3,350.4c0,3.3-2.7,6-6,6c-3.3,0-6-2.7-6-6s2.7-6,6-6C352.6,344.4,355.3,347,355.3,350.4z"/>
<path class="st3" d="M378.9,394.5c0,3.3-2.7,6-6,6c-3.3,0-6-2.7-6-6s2.7-6,6-6C376.2,388.5,378.9,391.2,378.9,394.5z"/>
<path class="st4" d="M308.2,394.5c0,3.3-2.7,6-6,6c-3.3,0-6-2.7-6-6s2.7-6,6-6C305.5,388.5,308.2,391.2,308.2,394.5z"/>
<path class="st4" d="M331.8,394.5c0,3.3-2.7,6-6,6s-6-2.7-6-6s2.7-6,6-6S331.8,391.2,331.8,394.5z"/>
<path class="st4" d="M284.7,394.5c0,3.3-2.7,6-6,6c-3.3,0-6-2.7-6-6s2.7-6,6-6C282,388.5,284.7,391.2,284.7,394.5z"/>
<g transform="translate(0,-11.5)">
	<text transform="matrix(1 0 0 1 305.9091 85.5)" class="st5 st6 st7">Kidney Cancer</text>
</g>
<g transform="translate(0,-11.5)">
	<text transform="matrix(1 0 0 1 579.5196 104.8101)" class="st5 st6 st7">Leukemia</text>
</g>
<g transform="translate(0,-11.5)">
	<text transform="matrix(1 0 0 1 327.9515 209.1001)" class="st5 st6 st7">Head and Neck Cancer</text>
</g>
<g transform="translate(0,-11.5)">
	<text transform="matrix(1 0 0 1 339.8624 240)" class="st5 st6 st7">Lymphoma</text>
</g>
<g transform="translate(0,-11.5)">
	<text transform="matrix(1 0 0 1 374.3619 265.3899)" class="st5 st6 st7">Neuroblastoma</text>
</g>
<g transform="translate(0,-11.5)">
	<text transform="matrix(1 0 0 1 578.0999 268.8601)" class="st5 st6 st7">Pancreatic Cancer</text>
</g>
<g transform="translate(0,-11.5)">
	<text transform="matrix(1 0 0 1 401.2311 291.5)" class="st5 st6 st7">Breast Cancer</text>
</g>
<g transform="translate(0,-11.5)">
	<text transform="matrix(1 0 0 1 315.6602 306.21)" class="st5 st6 st7">Esophageal Cancer</text>
</g>
<g transform="translate(0,-11.5)">
	<text transform="matrix(1 0 0 1 712.0511 330.5701)" class="st5 st6 st7">Lung Cancer</text>
</g>
<g transform="translate(0,-11.5)">
	<text transform="matrix(1 0 0 1 444.3057 335.0801)" class="st5 st6 st7">Ovarian Cancer</text>
</g>
<g transform="translate(0,-11.5)">
	<text transform="matrix(1 0 0 1 369.9603 350.3599)" class="st5 st6 st7">Sarcoma</text>
</g>
<g transform="translate(0,-11.5)">
	<text transform="matrix(1 0 0 1 290.4719 352.5804)" class="st5 st6 st7">Skin Cancer</text>
</g>
<g transform="translate(0,-11.5)">
	<text transform="matrix(1 0 0 1 384.4796 410.2)" class="st5 st6 st7">Brain Cancer</text>
</g>
<g transform="translate(0,-11.5)">
	<g>
		<text transform="matrix(1 0 0 1 209.765 429.7194)" class="st4 st6 st7">[Colon/Colorectal, Eye, Rhaboid]</text>
	</g>
</g>
<g transform="translate(0,-11.5)">
	<g>
		<text transform="matrix(1 0 0 1 266.988 387.2648)" class="st4 st6 st7">[Bladder, Endometrial/Uterine]</text>
	</g>
</g>
<g transform="translate(0,-11.5)">
	<g>
		<text transform="matrix(1 0 0 1 180.8325 379.1879)" class="st4 st6 st7">[Liver, Bone]</text>
	</g>
</g>
<g>
	<text transform="matrix(1 0 0 1 32.8041 148.5972)"><tspan x="0" y="0" class="st5 st8 st9">Genetic Dependence Ranks</tspan><tspan x="13.4" y="13.2" class="st5 st8 st9">More Like Cell Lines of</tspan><tspan x="12.5" y="26.4" class="st5 st8 st9">the Same Cancer Type</tspan></text>
</g>
<g>
	<text transform="matrix(1 0 0 1 32.804 300.2104)"><tspan x="0" y="0" class="st5 st8 st9">Genetic Dependence Ranks</tspan><tspan x="13.4" y="13.2" class="st5 st8 st9">More Like Cell Lines of</tspan><tspan x="9.7" y="26.4" class="st5 st8 st9">a Different Cancer Type</tspan></text>
</g>
<path class="st2" d="M164.2,0"/>
<path class="st2" d="M164.2,0"/>
<g>
	<g>
		<text transform="matrix(1 0 0 1 251.3184 433)" class="st5 st6 st7">0</text>
	</g>
	<g>
		<text transform="matrix(1 0 0 1 369.0684 433)" class="st5 st6 st7">5</text>
	</g>
	<g>
		<text transform="matrix(1 0 0 1 483.004 433)" class="st5 st6 st7">10</text>
	</g>
	<g>
		<text transform="matrix(1 0 0 1 600.754 433)" class="st5 st6 st7">15</text>
	</g>
	<g>
		<text transform="matrix(1 0 0 1 718.504 433)" class="st5 st6 st7">20</text>
	</g>
</g>
<g>
	<g>
		<text transform="matrix(1 0 0 1 225.7337 398.7)" class="st5 st6 st7">−1</text>
	</g>
	<g>
		<text transform="matrix(1 0 0 1 213.7396 321.45)" class="st5 st6 st7">−0.5</text>
	</g>
	<g>
		<text transform="matrix(1 0 0 1 235.554 244.2)" class="st5 st6 st7">0</text>
	</g>
	<g>
		<text transform="matrix(1 0 0 1 223.5599 166.95)" class="st5 st6 st7">0.5</text>
	</g>
	<g>
		<text transform="matrix(1 0 0 1 235.554 89.7)" class="st5 st6 st7">1</text>
	</g>
</g>
<g>
	<text transform="matrix(1 0 0 1 425.983 469.0964)" class="st5 st6 st10">Number of Cell Lines</text>
</g>
<g>
	<text transform="matrix(1 0 0 1 43.533 240.9998)" class="st5 st6 st10">Homophiliness</text>
</g>
<line class="st11" x1="224.6" y1="371.5" x2="273.7" y2="393.5"/>
<line class="st11" x1="351.7" y1="379.4" x2="328" y2="391.7"/>
<line class="st11" x1="302.2" y1="400.4" x2="302.2" y2="406.2"/>
<g>
	<g>
		<line class="st12" x1="102.6" y1="215.1" x2="102.6" y2="195.9"/>
		<g>
			<polygon class="st5" points="102.6,188.8 106.7,198.7 102.6,196.4 98.6,198.7 			"/>
		</g>
	</g>
</g>
<g>
	<g>
		<line class="st12" x1="102.6" y1="131.1" x2="102.6" y2="81.1"/>
		<g>
			<polygon class="st5" points="102.6,74 106.7,83.9 102.6,81.6 98.6,83.9 			"/>
		</g>
	</g>
</g>
<g>
	<g>
		<line class="st12" x1="102.6" y1="257.2" x2="102.6" y2="276.5"/>
		<g>
			<polygon class="st5" points="102.6,283.5 98.6,273.6 102.6,276 106.7,273.6 			"/>
		</g>
	</g>
</g>
<g>
	<g>
		<line class="st12" x1="102.6" y1="336.2" x2="102.6" y2="391.6"/>
		<g>
			<polygon class="st5" points="102.6,398.7 98.6,388.8 102.6,391.1 106.7,388.8 			"/>
		</g>
	</g>
</g>
</svg>
